<svg xmlns="http://www.w3.org/2000/svg" width="160" height="35" viewBox="0 0 160 35"><path fill-rule="evenodd" d="M100.868 10.048a9.47 9.47 0 00-5.617 1.829l-.348.254v-1.426h-6.61v23.058h6.61V21.107a4.453 4.453 0 014.449-4.449 4.453 4.453 0 014.448 4.449v12.656h6.61V19.591c0-5.263-4.28-9.543-9.542-9.543zM51.5 33.763h6.61V.255L51.5 2.238v31.525zm102.735-8.403c-.829 1.576-2.587 2.544-4.651 2.544-3.204 0-5.53-2.384-5.53-5.67 0-3.285 2.326-5.67 5.53-5.67 2.051 0 3.77.947 4.647 2.546L160 15.763c-2.065-3.531-5.999-5.715-10.322-5.715-6.975 0-12.234 5.239-12.234 12.186 0 6.948 5.26 12.187 12.234 12.187 4.334 0 8.268-2.202 10.322-5.76l-5.765-3.301zM132.056.18c-2.174 0-4.01 1.836-4.01 4.01 0 2.173 1.836 4.01 4.01 4.01 2.174 0 4.01-1.837 4.01-4.01 0-2.174-1.836-4.01-4.01-4.01zm-3.305 33.583h6.61V10.705h-6.61v23.058zm-6.922-30.532l-6.611 1.983v5.491h-3.76v6.33h3.76v8.536c0 3.207.664 5.301 2.09 6.588 1.726 1.56 4.704 2.078 9.36 1.625v-5.96c-2.12.117-3.503.032-4.256-.677-.393-.369-.583-.884-.583-1.576v-8.537h4.84v-6.329h-4.84V3.231zM72.615 28.186c-3.476 0-5.811-2.392-5.811-5.952s2.335-5.952 5.81-5.952c3.476 0 5.811 2.392 5.811 5.952s-2.335 5.952-5.81 5.952zm5.81-14.905l-.384-.442c-1.608-1.852-3.908-2.791-6.836-2.791-2.936 0-5.692 1.245-7.763 3.506-2.095 2.289-3.25 5.371-3.25 8.68s1.155 6.392 3.25 8.68c2.07 2.262 4.827 3.507 7.763 3.507 2.928 0 5.228-.939 6.836-2.791l.384-.443v2.576h6.611V10.705h-6.61v2.576zM35.822 28.186c-3.476 0-5.811-2.392-5.811-5.952s2.335-5.952 5.81-5.952c3.476 0 5.812 2.392 5.812 5.952s-2.336 5.952-5.811 5.952zm5.81-14.905l-.384-.442c-1.608-1.852-3.908-2.791-6.836-2.791-2.936 0-5.692 1.245-7.762 3.506-2.096 2.289-3.25 5.371-3.25 8.68s1.154 6.392 3.25 8.68c2.07 2.262 4.826 3.507 7.762 3.507 2.928 0 5.228-.939 6.836-2.791l.385-.443v2.576h6.61V10.705h-6.61v2.576zM17.42 10.705l-5.046 15.38-5.046-15.38H0l8.531 23.058h7.684l8.531-23.058H17.42z"/></svg>